<svg width="21" height="17" viewBox="0 0 21 17" fill="none" xmlns="http://www.w3.org/2000/svg">
<path d="M17.7637 0.890817C18.1159 0.55554 18.5845 0.370185 19.0708 0.373864C19.557 0.377543 20.0228 0.569968 20.3698 0.910537C20.7169 1.2511 20.9181 1.71318 20.9309 2.19925C20.9438 2.68533 20.7673 3.15739 20.4387 3.51582L10.4637 15.9908C10.2922 16.1756 10.0852 16.3238 9.85504 16.4267C9.62491 16.5296 9.37639 16.5851 9.12434 16.5898C8.87229 16.5944 8.62189 16.5482 8.3881 16.4539C8.15432 16.3596 7.94196 16.2191 7.76371 16.0408L1.14871 9.42582C0.964495 9.25416 0.81674 9.04716 0.71426 8.81716C0.61178 8.58716 0.556675 8.33888 0.552233 8.08712C0.547791 7.83537 0.594103 7.58529 0.688405 7.35182C0.782708 7.11835 0.923069 6.90627 1.10112 6.72822C1.27916 6.55017 1.49125 6.40981 1.72472 6.31551C1.95819 6.22121 2.20826 6.1749 2.46002 6.17934C2.71178 6.18378 2.96006 6.23888 3.19006 6.34136C3.42006 6.44384 3.62706 6.5916 3.79871 6.77582L9.03371 12.0083L17.7162 0.945818C17.7318 0.92657 17.7485 0.908207 17.7662 0.890817H17.7637Z" fill="#409FF8"/>
</svg>
