<svg width="31" height="32" viewBox="0 0 31 32" fill="none" xmlns="http://www.w3.org/2000/svg">
<path d="M2.11836 31.1808C1.88713 31.1804 1.65851 31.1318 1.44704 31.0383C1.23557 30.9448 1.04588 30.8082 0.890025 30.6374C0.731356 30.4681 0.610281 30.2671 0.534739 30.0476C0.459198 29.8282 0.430897 29.5952 0.451692 29.3641L0.860025 24.8741L19.7234 6.01742L25.6184 11.9108L6.76003 30.7658L2.27003 31.1741C2.21961 31.1787 2.16899 31.181 2.11836 31.1808ZM26.795 10.7324L20.9017 4.83909L24.4367 1.30409C24.5915 1.14913 24.7753 1.0262 24.9776 0.942322C25.18 0.858448 25.3968 0.815277 25.6159 0.815277C25.8349 0.815277 26.0518 0.858448 26.2541 0.942322C26.4564 1.0262 26.6402 1.14913 26.795 1.30409L30.33 4.83909C30.485 4.99388 30.6079 5.17769 30.6918 5.38002C30.7757 5.58235 30.8188 5.79923 30.8188 6.01825C30.8188 6.23728 30.7757 6.45416 30.6918 6.65649C30.6079 6.85882 30.485 7.04263 30.33 7.19742L26.7967 10.7308L26.795 10.7324Z" fill="#409FF8"/>
</svg>
