<svg width="35" height="35" viewBox="0 0 35 35" fill="none" xmlns="http://www.w3.org/2000/svg">
<path d="M14.2093 7.48194H20.876C20.876 6.59789 20.5248 5.75004 19.8997 5.12492C19.2745 4.4998 18.4267 4.14861 17.5426 4.14861C16.6586 4.14861 15.8107 4.4998 15.1856 5.12492C14.5605 5.75004 14.2093 6.59789 14.2093 7.48194V7.48194ZM10.876 7.48194C10.876 5.71383 11.5784 4.01814 12.8286 2.7679C14.0788 1.51766 15.7745 0.815277 17.5426 0.815277C19.3108 0.815277 21.0064 1.51766 22.2567 2.7679C23.5069 4.01814 24.2093 5.71383 24.2093 7.48194H32.5426C32.9847 7.48194 33.4086 7.65754 33.7212 7.9701C34.0337 8.28266 34.2093 8.70658 34.2093 9.14861C34.2093 9.59064 34.0337 10.0146 33.7212 10.3271C33.4086 10.6397 32.9847 10.8153 32.5426 10.8153H31.0726L29.596 28.0486C29.454 29.7127 28.6926 31.2629 27.4624 32.3925C26.2322 33.5221 24.6228 34.1488 22.9526 34.1486H12.1326C10.4625 34.1488 8.8531 33.5221 7.62289 32.3925C6.39268 31.2629 5.63127 29.7127 5.48931 28.0486L4.01264 10.8153H2.54264C2.10062 10.8153 1.67669 10.6397 1.36413 10.3271C1.05157 10.0146 0.875977 9.59064 0.875977 9.14861C0.875977 8.70658 1.05157 8.28266 1.36413 7.9701C1.67669 7.65754 2.10062 7.48194 2.54264 7.48194H10.876ZM22.5426 17.4819C22.5426 17.0399 22.367 16.616 22.0545 16.3034C21.7419 15.9909 21.318 15.8153 20.876 15.8153C20.4339 15.8153 20.01 15.9909 19.6975 16.3034C19.3849 16.616 19.2093 17.0399 19.2093 17.4819V24.1486C19.2093 24.5906 19.3849 25.0146 19.6975 25.3271C20.01 25.6397 20.4339 25.8153 20.876 25.8153C21.318 25.8153 21.7419 25.6397 22.0545 25.3271C22.367 25.0146 22.5426 24.5906 22.5426 24.1486V17.4819ZM14.2093 15.8153C14.6513 15.8153 15.0753 15.9909 15.3878 16.3034C15.7004 16.616 15.876 17.0399 15.876 17.4819V24.1486C15.876 24.5906 15.7004 25.0146 15.3878 25.3271C15.0753 25.6397 14.6513 25.8153 14.2093 25.8153C13.7673 25.8153 13.3434 25.6397 13.0308 25.3271C12.7182 25.0146 12.5426 24.5906 12.5426 24.1486V17.4819C12.5426 17.0399 12.7182 16.616 13.0308 16.3034C13.3434 15.9909 13.7673 15.8153 14.2093 15.8153V15.8153ZM8.80931 27.7653C8.88032 28.5976 9.26126 29.373 9.87671 29.9378C10.4922 30.5026 11.2973 30.8158 12.1326 30.8153H22.9526C23.7874 30.815 24.5917 30.5014 25.2065 29.9367C25.8212 29.3719 26.2017 28.597 26.2726 27.7653L27.726 10.8153H7.35931L8.81264 27.7653H8.80931Z" fill="#409FF8"/>
</svg>
